<svg xmlns="http://www.w3.org/2000/svg" width="12" height="12" viewBox="0 0 12 12" fill="none">
<path d="M5.49059 10.3144L5.48987 10.3138C3.97796 8.94278 2.76332 7.83869 1.92082 6.80794C1.08382 5.78393 0.666504 4.89354 0.666504 3.95833C0.666504 2.43257 1.85372 1.25 3.37484 1.25C4.23869 1.25 5.07607 1.65473 5.62042 2.28897L5.99984 2.73105L6.37925 2.28897C6.92361 1.65473 7.76099 1.25 8.62484 1.25C10.146 1.25 11.3332 2.43257 11.3332 3.95833C11.3332 4.89354 10.9159 5.78393 10.0789 6.80794C9.23635 7.83869 8.02171 8.94278 6.5098 10.3138L6.50908 10.3144L5.99984 10.778L5.49059 10.3144Z" fill="white" stroke="black"/>
</svg>